<svg width="226" height="19" viewBox="0 0 226 19" fill="none" xmlns="http://www.w3.org/2000/svg">
<path d="M1 16.7579L17.824 7.0445C23.2514 3.91097 30.1068 4.8135 34.5383 9.24497C38.9698 13.6764 45.8252 14.579 51.2526 11.4455L56.9024 8.18354C63.8171 4.19135 72.3363 4.19135 79.251 8.18354L81.0894 9.24497C89.1417 13.894 99.0626 13.894 107.115 9.24497C115.167 4.59596 125.088 4.59596 133.14 9.24497C141.193 13.894 151.114 13.894 159.166 9.24497C167.218 4.59596 177.139 4.59596 185.191 9.24497C193.244 13.894 203.165 13.894 211.217 9.24497L224.23 1.73206" stroke="#FF5647" stroke-width="4"/>
</svg>
